<svg viewBox="0 0 200 200" fill="none" xmlns="http://www.w3.org/2000/svg">
  <mask id="a" mask-type="alpha" maskUnits="userSpaceOnUse" x="0" y="0" width="200" height="200">
    <path fill="#C4C4C4" d="M0 0h200v200H0z"/>
  </mask>
  <g mask="url(#a)">
    <path d="M99.5 15c-46.944 0-85 38.056-85 85v165h170V100c0-46.944-38.056-85-85-85z" fill="#C4C4C4"/>
    <path d="M67.287 21.316C77.222 17.245 88.1 15 99.5 15c46.944 0 85 38.056 85 85v165h-170V100c0-23.77 9.756-45.26 25.483-60.685C38.745 38.012 38 36.333 38 34.5c0-4.142 3.806-7.5 8.5-7.5a9.53 9.53 0 0 1 2.587.354c1.286-6.275 6.685-10.548 12.262-9.606 2.397.405 4.447 1.709 5.938 3.568z" fill="#C4C4C4"/>
    <path d="M67.287 21.316C77.222 17.245 88.1 15 99.5 15c46.944 0 85 38.056 85 85v165h-170V100c0-23.77 9.756-45.26 25.483-60.685C38.745 38.012 38 36.333 38 34.5c0-4.142 3.806-7.5 8.5-7.5a9.53 9.53 0 0 1 2.587.354c1.286-6.275 6.685-10.548 12.262-9.606 2.397.405 4.447 1.709 5.938 3.568z" fill="url(#b)"/>
    <rect x="44.5" y="154" width="110" height="123" rx="55" fill="#F3ECEC"/>
    <mask id="c" mask-type="alpha" maskUnits="userSpaceOnUse" x="59" y="81" width="81" height="50">
      <ellipse cx="99.5" cy="106" rx="40" ry="25" fill="#F3ECEC"/>
    </mask>
    <g mask="url(#c)">
      <ellipse cx="99.5" cy="106" rx="40" ry="25" fill="#E2E0E0"/>
      <ellipse cx="99.5" cy="102" rx="40" ry="25" fill="#F3ECEC"/>
    </g>
    <path stroke="#9E9E9E" stroke-width="2" stroke-linecap="round" d="m31.051 100.054 36.003 1.895m65.577 8.202 33.02 4.718m-97.98-7.724-35.526 5.684m133.884-11.801-33.501.943"/>
    <ellipse cx="99.5" cy="90" rx="10" ry="6" fill="#FFC6C6"/>
    <circle cx="52" cy="83" r="12" fill="#000" stroke="#000" stroke-width="4"/>
    <circle cx="147" cy="83" r="12" fill="#000" stroke="#000" stroke-width="4"/>
    <path d="M64 83s14-6 36.5-6 34.5 6 34.5 6" stroke="#000" stroke-width="4"/>
    <mask id="d" mask-type="alpha" maskUnits="userSpaceOnUse" x="42" y="73" width="20" height="20">
      <circle cx="52" cy="83" r="10" fill="#C4C4C4"/>
    </mask>
    <g mask="url(#d)" fill="#fff">
      <path d="m56.006 55 4.23 2.1-24.006 48.37-4.23-2.1zm5 3 2.154 1.07-24.006 48.37L37 106.37z"/>
    </g>
    <path d="M56 60.273C56 62.683 41.578 63 29.882 63 18.187 63 8 62.455 8 61.364 8 58.954 25.246 57 36.941 57 48.637 57 56 57.863 56 60.273z" fill="#EF2E2E"/>
    <path fill="#EF2E2E" d="M31 55h136v8H31z"/>
    <mask id="e" mask-type="alpha" maskUnits="userSpaceOnUse" x="21" y="7" width="157" height="57">
      <path d="M98.5 7C70 7 28 24.5 21 63.5h157C172.5 20.5 127 7 98.5 7z" fill="#423F3F"/>
    </mask>
    <g mask="url(#e)">
      <path d="M-11 7h220v57h-89.5V50.5H81V64h-92V7z" fill="#373737"/>
    </g>
    <ellipse cx="99.5" cy="7.5" rx="6" ry="2.5" fill="#EF2E2E"/>
  </g>
  <defs>
    <radialGradient id="b" cx="0" cy="0" r="1" gradientUnits="userSpaceOnUse" gradientTransform="matrix(0 115 -90.9302 0 100 136)">
      <stop stop-color="#fff" stop-opacity="0"/>
      <stop offset="1" stop-color="#9E9E9E"/>
    </radialGradient>
  </defs>
</svg>